<svg width="16" height="20" viewBox="0 0 16 20" fill="none" xmlns="http://www.w3.org/2000/svg">
<path d="M16 7.7823C16 3.4844 12.4184 0 8 0C3.58187 0 0 3.4844 0 7.7823C0 9.62048 0.657067 11.3092 1.75253 12.6408C1.7528 12.6411 1.75307 12.6416 1.7528 12.6418C1.75253 12.6421 1.75227 12.6424 1.75173 12.6424C3.81733 15.1519 6.73653 18.6988 7.68747 19.854C7.76347 19.946 7.8784 19.9997 7.99973 20C8.12133 20 8.23653 19.9466 8.31227 19.8542C9.26267 18.6993 12.1811 15.154 14.2467 12.6442C14.2469 12.6439 14.2472 12.6434 14.2469 12.6431C14.2467 12.6429 14.2464 12.6426 14.2459 12.6426C15.3424 11.3105 16 9.62178 16 7.7823ZM12.9512 11.7277L8 17.7437L3.0968 11.7866L3.04667 11.7259C3.032 11.7064 3.01707 11.6872 3.0016 11.6683C2.08453 10.5536 1.6 9.20984 1.6 7.7823C1.6 4.34927 4.4712 1.55646 8 1.55646C11.5288 1.55646 14.4 4.34927 14.4 7.7823C14.4 9.21061 13.9149 10.5549 12.9968 11.6698C12.9813 11.6888 12.9661 11.708 12.9512 11.7277Z" fill="#027353"/>
<path d="M8.00001 10.5061C9.54641 10.5061 10.8 9.28659 10.8 7.78228C10.8 6.27796 9.54641 5.05847 8.00001 5.05847C6.45361 5.05847 5.20001 6.27796 5.20001 7.78228C5.20001 9.28659 6.45361 10.5061 8.00001 10.5061Z" fill="#027353"/>
</svg>
