<svg width="27" height="18" viewBox="0 0 27 18" fill="none" xmlns="http://www.w3.org/2000/svg">
<path d="M13.0058 17.9986C11.6068 18.0017 10.2211 17.7276 8.92861 17.1921C7.63616 16.6566 6.46263 15.8703 5.4758 14.8786L0.295798 9.70862C0.20207 9.61566 0.127676 9.50506 0.0769069 9.3832C0.0261382 9.26134 0 9.13064 0 8.99863C0 8.86661 0.0261382 8.73591 0.0769069 8.61405C0.127676 8.49219 0.20207 8.38159 0.295798 8.28863L5.4758 3.11863C7.47301 1.12178 10.1816 0 13.0058 0C15.83 0 18.5386 1.12178 20.5358 3.11863L25.7158 8.28863C25.8095 8.38159 25.8839 8.49219 25.9347 8.61405C25.9855 8.73591 26.0116 8.86661 26.0116 8.99863C26.0116 9.13064 25.9855 9.26134 25.9347 9.3832C25.8839 9.50506 25.8095 9.61566 25.7158 9.70862L20.5358 14.8786C19.549 15.8703 18.3754 16.6566 17.083 17.1921C15.7905 17.7276 14.4048 18.0017 13.0058 17.9986ZM2.4158 8.99863L6.8858 13.4686C8.51087 15.0881 10.7116 15.9974 13.0058 15.9974C15.3 15.9974 17.5007 15.0881 19.1258 13.4686L23.5958 8.99863L19.1258 4.52863C17.5007 2.90917 15.3 1.99984 13.0058 1.99984C10.7116 1.99984 8.51087 2.90917 6.8858 4.52863L2.4158 8.99863Z" fill="#027353"/>
<path d="M13.0058 12.9986C12.2147 12.9986 11.4413 12.764 10.7835 12.3245C10.1257 11.885 9.61303 11.2602 9.31028 10.5293C9.00753 9.79843 8.92832 8.99416 9.08266 8.21824C9.237 7.44231 9.61796 6.72958 10.1774 6.17017C10.7368 5.61076 11.4495 5.2298 12.2254 5.07546C13.0014 4.92112 13.8056 5.00033 14.5365 5.30308C15.2674 5.60583 15.8922 6.11852 16.3317 6.77632C16.7712 7.43411 17.0058 8.20747 17.0058 8.9986C17.0058 10.0595 16.5844 11.0769 15.8342 11.827C15.0841 12.5772 14.0667 12.9986 13.0058 12.9986ZM13.0058 6.9986C12.6102 6.9986 12.2236 7.1159 11.8947 7.33566C11.5658 7.55542 11.3094 7.86778 11.158 8.23323C11.0067 8.59868 10.9671 9.00082 11.0442 9.38878C11.1214 9.77674 11.3119 10.1331 11.5916 10.4128C11.8713 10.6925 12.2277 10.883 12.6156 10.9602C13.0036 11.0373 13.4057 10.9977 13.7712 10.8464C14.1366 10.695 14.449 10.4386 14.6687 10.1097C14.8885 9.78084 15.0058 9.39416 15.0058 8.9986C15.0058 8.46817 14.7951 7.95946 14.42 7.58439C14.0449 7.20931 13.5362 6.9986 13.0058 6.9986Z" fill="#027353"/>
</svg>
