<svg width="15" height="15" viewBox="0 0 15 15" fill="none" xmlns="http://www.w3.org/2000/svg">
<path d="M6.14496 12.1024C2.77311 12.1024 0 9.58351 0 6.45655C0 3.35856 2.7416 0.810669 6.14496 0.810669C9.54832 0.810669 12.2899 3.3296 12.2899 6.45655C12.2584 9.58351 9.51681 12.1024 6.14496 12.1024ZM6.14496 1.65031C3.2458 1.65031 0.882353 3.82181 0.882353 6.4855C0.882353 9.1492 3.2458 11.3207 6.14496 11.3207C9.04412 11.3207 11.4076 9.1492 11.4076 6.4855C11.3761 3.82181 9.01261 1.65031 6.14496 1.65031Z" fill="#014029"/>
<path d="M14.3383 14.6213L10.0526 10.7127L10.7458 10.0757L15 14.0133L14.3383 14.6213Z" fill="#014029"/>
</svg>
